<mxfile host="app.diagrams.net" modified="2021-12-14T05:48:48.828Z" agent="5.0 (Macintosh; Intel Mac OS X 10_15_7) AppleWebKit/537.36 (KHTML, like Gecko) Chrome/96.0.4664.93 Safari/537.36" etag="tHMvuaCThNzavBsB7Y-3" version="15.9.4" type="github">
  <diagram id="xgxGfVM0KJD4HuWQ2d9F" name="Page-1">
    <mxGraphModel dx="1757" dy="1868" grid="1" gridSize="10" guides="1" tooltips="1" connect="1" arrows="1" fold="1" page="1" pageScale="1" pageWidth="827" pageHeight="1169" math="0" shadow="0">
      <root>
        <mxCell id="0" />
        <mxCell id="1" parent="0" />
        <mxCell id="nhJ-aPlhkV6QwyrbJD3G-168" value="" style="rounded=0;whiteSpace=wrap;html=1;fontSize=16;" vertex="1" parent="1">
          <mxGeometry x="-180" y="20" width="980" height="1080" as="geometry" />
        </mxCell>
        <mxCell id="nhJ-aPlhkV6QwyrbJD3G-151" value="" style="rounded=1;whiteSpace=wrap;html=1;fontSize=16;fillColor=#cdeb8b;strokeColor=#36393d;" vertex="1" parent="1">
          <mxGeometry x="-160" y="100" width="120" height="970" as="geometry" />
        </mxCell>
        <mxCell id="nhJ-aPlhkV6QwyrbJD3G-125" value="" style="rounded=1;whiteSpace=wrap;html=1;fontSize=16;fillColor=#f9f7ed;strokeColor=#36393d;" vertex="1" parent="1">
          <mxGeometry x="40" y="100" width="640" height="100" as="geometry" />
        </mxCell>
        <mxCell id="nhJ-aPlhkV6QwyrbJD3G-57" value="" style="rounded=1;whiteSpace=wrap;html=1;fontSize=16;fillColor=#f9f7ed;strokeColor=#36393d;" vertex="1" parent="1">
          <mxGeometry x="40" y="640" width="640" height="160" as="geometry" />
        </mxCell>
        <mxCell id="nhJ-aPlhkV6QwyrbJD3G-36" value="" style="rounded=1;whiteSpace=wrap;html=1;fontSize=16;fillColor=#f9f7ed;strokeColor=#36393d;" vertex="1" parent="1">
          <mxGeometry x="40" y="440" width="640" height="160" as="geometry" />
        </mxCell>
        <mxCell id="nhJ-aPlhkV6QwyrbJD3G-35" value="" style="rounded=1;whiteSpace=wrap;html=1;fontSize=16;fillColor=#f9f7ed;strokeColor=#36393d;" vertex="1" parent="1">
          <mxGeometry x="40" y="240" width="640" height="160" as="geometry" />
        </mxCell>
        <mxCell id="nhJ-aPlhkV6QwyrbJD3G-1" value="1" style="rounded=0;whiteSpace=wrap;html=1;fontSize=16;fillColor=#ffcccc;strokeColor=#36393d;" vertex="1" parent="1">
          <mxGeometry x="220" y="130" width="40" height="40" as="geometry" />
        </mxCell>
        <mxCell id="nhJ-aPlhkV6QwyrbJD3G-2" value="最小记录" style="rounded=0;whiteSpace=wrap;html=1;fontSize=16;fillColor=#ffff88;strokeColor=#36393d;" vertex="1" parent="1">
          <mxGeometry x="300" y="130" width="80" height="40" as="geometry" />
        </mxCell>
        <mxCell id="nhJ-aPlhkV6QwyrbJD3G-4" value="" style="ellipse;whiteSpace=wrap;html=1;aspect=fixed;fontSize=16;" vertex="1" parent="1">
          <mxGeometry x="NaN" y="NaN" width="NaN" as="geometry" />
        </mxCell>
        <mxCell id="nhJ-aPlhkV6QwyrbJD3G-104" style="edgeStyle=orthogonalEdgeStyle;rounded=0;orthogonalLoop=1;jettySize=auto;html=1;entryX=0.5;entryY=0;entryDx=0;entryDy=0;fontSize=16;exitX=0.5;exitY=1;exitDx=0;exitDy=0;" edge="1" parent="1" source="nhJ-aPlhkV6QwyrbJD3G-9" target="nhJ-aPlhkV6QwyrbJD3G-10">
          <mxGeometry relative="1" as="geometry">
            <Array as="points">
              <mxPoint x="280" y="220" />
              <mxPoint x="90" y="220" />
            </Array>
          </mxGeometry>
        </mxCell>
        <mxCell id="nhJ-aPlhkV6QwyrbJD3G-9" value="" style="rounded=0;whiteSpace=wrap;html=1;fontSize=16;" vertex="1" parent="1">
          <mxGeometry x="260" y="130" width="40" height="40" as="geometry" />
        </mxCell>
        <mxCell id="nhJ-aPlhkV6QwyrbJD3G-6" value="" style="ellipse;whiteSpace=wrap;html=1;aspect=fixed;fillColor=#f5f5f5;gradientColor=#1A1A1A;strokeColor=#666666;fontSize=16;" vertex="1" parent="1">
          <mxGeometry x="275" y="145" width="10" height="10" as="geometry" />
        </mxCell>
        <mxCell id="nhJ-aPlhkV6QwyrbJD3G-10" value="0" style="rounded=0;whiteSpace=wrap;html=1;fontSize=16;fillColor=#ffcccc;strokeColor=#36393d;" vertex="1" parent="1">
          <mxGeometry x="70" y="260" width="40" height="40" as="geometry" />
        </mxCell>
        <mxCell id="nhJ-aPlhkV6QwyrbJD3G-11" value="1" style="rounded=0;whiteSpace=wrap;html=1;fontSize=16;fillColor=#cdeb8b;strokeColor=#36393d;" vertex="1" parent="1">
          <mxGeometry x="150" y="260" width="40" height="40" as="geometry" />
        </mxCell>
        <mxCell id="nhJ-aPlhkV6QwyrbJD3G-105" style="edgeStyle=orthogonalEdgeStyle;rounded=0;orthogonalLoop=1;jettySize=auto;html=1;entryX=0;entryY=0.5;entryDx=0;entryDy=0;fontSize=16;exitX=0.75;exitY=0;exitDx=0;exitDy=0;" edge="1" parent="1" source="nhJ-aPlhkV6QwyrbJD3G-12" target="nhJ-aPlhkV6QwyrbJD3G-15">
          <mxGeometry relative="1" as="geometry">
            <Array as="points">
              <mxPoint x="140" y="250" />
              <mxPoint x="370" y="250" />
              <mxPoint x="370" y="280" />
            </Array>
          </mxGeometry>
        </mxCell>
        <mxCell id="nhJ-aPlhkV6QwyrbJD3G-12" value="" style="rounded=0;whiteSpace=wrap;html=1;fontSize=16;" vertex="1" parent="1">
          <mxGeometry x="110" y="260" width="40" height="40" as="geometry" />
        </mxCell>
        <mxCell id="nhJ-aPlhkV6QwyrbJD3G-13" value="" style="ellipse;whiteSpace=wrap;html=1;aspect=fixed;fillColor=#f5f5f5;gradientColor=#1A1A1A;strokeColor=#666666;fontSize=16;" vertex="1" parent="1">
          <mxGeometry x="125" y="275" width="10" height="10" as="geometry" />
        </mxCell>
        <mxCell id="nhJ-aPlhkV6QwyrbJD3G-14" value="行记录" style="rounded=0;whiteSpace=wrap;html=1;fontSize=16;fillColor=#cce5ff;strokeColor=#36393d;" vertex="1" parent="1">
          <mxGeometry x="190" y="260" width="120" height="40" as="geometry" />
        </mxCell>
        <mxCell id="nhJ-aPlhkV6QwyrbJD3G-15" value="0" style="rounded=0;whiteSpace=wrap;html=1;fontSize=16;fillColor=#ffcccc;strokeColor=#36393d;" vertex="1" parent="1">
          <mxGeometry x="390" y="260" width="40" height="40" as="geometry" />
        </mxCell>
        <mxCell id="nhJ-aPlhkV6QwyrbJD3G-16" value="2" style="rounded=0;whiteSpace=wrap;html=1;fontSize=16;fillColor=#cdeb8b;strokeColor=#36393d;" vertex="1" parent="1">
          <mxGeometry x="470" y="260" width="40" height="40" as="geometry" />
        </mxCell>
        <mxCell id="nhJ-aPlhkV6QwyrbJD3G-17" value="" style="rounded=0;whiteSpace=wrap;html=1;fontSize=16;" vertex="1" parent="1">
          <mxGeometry x="430" y="260" width="40" height="40" as="geometry" />
        </mxCell>
        <mxCell id="nhJ-aPlhkV6QwyrbJD3G-106" style="edgeStyle=orthogonalEdgeStyle;rounded=0;orthogonalLoop=1;jettySize=auto;html=1;entryX=0.5;entryY=0;entryDx=0;entryDy=0;fontSize=16;" edge="1" parent="1" source="nhJ-aPlhkV6QwyrbJD3G-18" target="nhJ-aPlhkV6QwyrbJD3G-25">
          <mxGeometry relative="1" as="geometry">
            <Array as="points">
              <mxPoint x="450" y="320" />
              <mxPoint x="90" y="320" />
            </Array>
          </mxGeometry>
        </mxCell>
        <mxCell id="nhJ-aPlhkV6QwyrbJD3G-18" value="" style="ellipse;whiteSpace=wrap;html=1;aspect=fixed;fillColor=#f5f5f5;gradientColor=#1A1A1A;strokeColor=#666666;fontSize=16;" vertex="1" parent="1">
          <mxGeometry x="445" y="275" width="10" height="10" as="geometry" />
        </mxCell>
        <mxCell id="nhJ-aPlhkV6QwyrbJD3G-19" value="行记录" style="rounded=0;whiteSpace=wrap;html=1;fontSize=16;fillColor=#cce5ff;strokeColor=#36393d;" vertex="1" parent="1">
          <mxGeometry x="510" y="260" width="120" height="40" as="geometry" />
        </mxCell>
        <mxCell id="nhJ-aPlhkV6QwyrbJD3G-25" value="0" style="rounded=0;whiteSpace=wrap;html=1;fontSize=16;fillColor=#ffcccc;strokeColor=#36393d;" vertex="1" parent="1">
          <mxGeometry x="70" y="340" width="40" height="40" as="geometry" />
        </mxCell>
        <mxCell id="nhJ-aPlhkV6QwyrbJD3G-26" value="3" style="rounded=0;whiteSpace=wrap;html=1;fontSize=16;fillColor=#cdeb8b;strokeColor=#36393d;" vertex="1" parent="1">
          <mxGeometry x="150" y="340" width="40" height="40" as="geometry" />
        </mxCell>
        <mxCell id="nhJ-aPlhkV6QwyrbJD3G-107" style="edgeStyle=orthogonalEdgeStyle;rounded=0;orthogonalLoop=1;jettySize=auto;html=1;entryX=0.5;entryY=1;entryDx=0;entryDy=0;fontSize=16;" edge="1" parent="1" source="nhJ-aPlhkV6QwyrbJD3G-27" target="nhJ-aPlhkV6QwyrbJD3G-30">
          <mxGeometry relative="1" as="geometry">
            <Array as="points">
              <mxPoint x="130" y="390" />
              <mxPoint x="410" y="390" />
            </Array>
          </mxGeometry>
        </mxCell>
        <mxCell id="nhJ-aPlhkV6QwyrbJD3G-27" value="" style="rounded=0;whiteSpace=wrap;html=1;fontSize=16;" vertex="1" parent="1">
          <mxGeometry x="110" y="340" width="40" height="40" as="geometry" />
        </mxCell>
        <mxCell id="nhJ-aPlhkV6QwyrbJD3G-28" value="" style="ellipse;whiteSpace=wrap;html=1;aspect=fixed;fillColor=#f5f5f5;gradientColor=#1A1A1A;strokeColor=#666666;fontSize=16;" vertex="1" parent="1">
          <mxGeometry x="125" y="355" width="10" height="10" as="geometry" />
        </mxCell>
        <mxCell id="nhJ-aPlhkV6QwyrbJD3G-29" value="行记录" style="rounded=0;whiteSpace=wrap;html=1;fontSize=16;fillColor=#cce5ff;strokeColor=#36393d;" vertex="1" parent="1">
          <mxGeometry x="190" y="340" width="120" height="40" as="geometry" />
        </mxCell>
        <mxCell id="nhJ-aPlhkV6QwyrbJD3G-30" value="4" style="rounded=0;whiteSpace=wrap;html=1;fontSize=16;fillColor=#ffcccc;strokeColor=#36393d;" vertex="1" parent="1">
          <mxGeometry x="390" y="340" width="40" height="40" as="geometry" />
        </mxCell>
        <mxCell id="nhJ-aPlhkV6QwyrbJD3G-31" value="4" style="rounded=0;whiteSpace=wrap;html=1;fontSize=16;fillColor=#cdeb8b;strokeColor=#36393d;" vertex="1" parent="1">
          <mxGeometry x="470" y="340" width="40" height="40" as="geometry" />
        </mxCell>
        <mxCell id="nhJ-aPlhkV6QwyrbJD3G-32" value="" style="rounded=0;whiteSpace=wrap;html=1;fontSize=16;" vertex="1" parent="1">
          <mxGeometry x="430" y="340" width="40" height="40" as="geometry" />
        </mxCell>
        <mxCell id="nhJ-aPlhkV6QwyrbJD3G-108" style="edgeStyle=orthogonalEdgeStyle;rounded=0;orthogonalLoop=1;jettySize=auto;html=1;entryX=0.5;entryY=0;entryDx=0;entryDy=0;fontSize=16;" edge="1" parent="1" source="nhJ-aPlhkV6QwyrbJD3G-33" target="nhJ-aPlhkV6QwyrbJD3G-37">
          <mxGeometry relative="1" as="geometry">
            <Array as="points">
              <mxPoint x="450" y="420" />
              <mxPoint x="90" y="420" />
            </Array>
          </mxGeometry>
        </mxCell>
        <mxCell id="nhJ-aPlhkV6QwyrbJD3G-33" value="" style="ellipse;whiteSpace=wrap;html=1;aspect=fixed;fillColor=#f5f5f5;gradientColor=#1A1A1A;strokeColor=#666666;fontSize=16;" vertex="1" parent="1">
          <mxGeometry x="445" y="355" width="10" height="10" as="geometry" />
        </mxCell>
        <mxCell id="nhJ-aPlhkV6QwyrbJD3G-34" value="行记录" style="rounded=0;whiteSpace=wrap;html=1;fontSize=16;fillColor=#cce5ff;strokeColor=#36393d;" vertex="1" parent="1">
          <mxGeometry x="510" y="340" width="120" height="40" as="geometry" />
        </mxCell>
        <mxCell id="nhJ-aPlhkV6QwyrbJD3G-37" value="0" style="rounded=0;whiteSpace=wrap;html=1;fontSize=16;fillColor=#ffcccc;strokeColor=#36393d;" vertex="1" parent="1">
          <mxGeometry x="70" y="460" width="40" height="40" as="geometry" />
        </mxCell>
        <mxCell id="nhJ-aPlhkV6QwyrbJD3G-38" value="5" style="rounded=0;whiteSpace=wrap;html=1;fontSize=16;fillColor=#cdeb8b;strokeColor=#36393d;" vertex="1" parent="1">
          <mxGeometry x="150" y="460" width="40" height="40" as="geometry" />
        </mxCell>
        <mxCell id="nhJ-aPlhkV6QwyrbJD3G-109" style="edgeStyle=orthogonalEdgeStyle;rounded=0;orthogonalLoop=1;jettySize=auto;html=1;entryX=0;entryY=0.5;entryDx=0;entryDy=0;fontSize=16;" edge="1" parent="1" source="nhJ-aPlhkV6QwyrbJD3G-39" target="nhJ-aPlhkV6QwyrbJD3G-42">
          <mxGeometry relative="1" as="geometry">
            <Array as="points">
              <mxPoint x="130" y="450" />
              <mxPoint x="370" y="450" />
              <mxPoint x="370" y="480" />
            </Array>
          </mxGeometry>
        </mxCell>
        <mxCell id="nhJ-aPlhkV6QwyrbJD3G-39" value="" style="rounded=0;whiteSpace=wrap;html=1;fontSize=16;" vertex="1" parent="1">
          <mxGeometry x="110" y="460" width="40" height="40" as="geometry" />
        </mxCell>
        <mxCell id="nhJ-aPlhkV6QwyrbJD3G-40" value="" style="ellipse;whiteSpace=wrap;html=1;aspect=fixed;fillColor=#f5f5f5;gradientColor=#1A1A1A;strokeColor=#666666;fontSize=16;" vertex="1" parent="1">
          <mxGeometry x="125" y="475" width="10" height="10" as="geometry" />
        </mxCell>
        <mxCell id="nhJ-aPlhkV6QwyrbJD3G-41" value="行记录" style="rounded=0;whiteSpace=wrap;html=1;fontSize=16;fillColor=#cce5ff;strokeColor=#36393d;" vertex="1" parent="1">
          <mxGeometry x="190" y="460" width="120" height="40" as="geometry" />
        </mxCell>
        <mxCell id="nhJ-aPlhkV6QwyrbJD3G-42" value="0" style="rounded=0;whiteSpace=wrap;html=1;fontSize=16;fillColor=#ffcccc;strokeColor=#36393d;" vertex="1" parent="1">
          <mxGeometry x="390" y="460" width="40" height="40" as="geometry" />
        </mxCell>
        <mxCell id="nhJ-aPlhkV6QwyrbJD3G-43" value="6" style="rounded=0;whiteSpace=wrap;html=1;fontSize=16;fillColor=#cdeb8b;strokeColor=#36393d;" vertex="1" parent="1">
          <mxGeometry x="470" y="460" width="40" height="40" as="geometry" />
        </mxCell>
        <mxCell id="nhJ-aPlhkV6QwyrbJD3G-110" style="edgeStyle=orthogonalEdgeStyle;rounded=0;orthogonalLoop=1;jettySize=auto;html=1;entryX=0.5;entryY=0;entryDx=0;entryDy=0;fontSize=16;" edge="1" parent="1" source="nhJ-aPlhkV6QwyrbJD3G-44" target="nhJ-aPlhkV6QwyrbJD3G-47">
          <mxGeometry relative="1" as="geometry">
            <Array as="points">
              <mxPoint x="450" y="520" />
              <mxPoint x="90" y="520" />
            </Array>
          </mxGeometry>
        </mxCell>
        <mxCell id="nhJ-aPlhkV6QwyrbJD3G-44" value="" style="rounded=0;whiteSpace=wrap;html=1;fontSize=16;" vertex="1" parent="1">
          <mxGeometry x="430" y="460" width="40" height="40" as="geometry" />
        </mxCell>
        <mxCell id="nhJ-aPlhkV6QwyrbJD3G-45" value="" style="ellipse;whiteSpace=wrap;html=1;aspect=fixed;fillColor=#f5f5f5;gradientColor=#1A1A1A;strokeColor=#666666;fontSize=16;" vertex="1" parent="1">
          <mxGeometry x="445" y="475" width="10" height="10" as="geometry" />
        </mxCell>
        <mxCell id="nhJ-aPlhkV6QwyrbJD3G-46" value="行记录" style="rounded=0;whiteSpace=wrap;html=1;fontSize=16;fillColor=#cce5ff;strokeColor=#36393d;" vertex="1" parent="1">
          <mxGeometry x="510" y="460" width="120" height="40" as="geometry" />
        </mxCell>
        <mxCell id="nhJ-aPlhkV6QwyrbJD3G-47" value="0" style="rounded=0;whiteSpace=wrap;html=1;fontSize=16;fillColor=#ffcccc;strokeColor=#36393d;" vertex="1" parent="1">
          <mxGeometry x="70" y="540" width="40" height="40" as="geometry" />
        </mxCell>
        <mxCell id="nhJ-aPlhkV6QwyrbJD3G-48" value="7" style="rounded=0;whiteSpace=wrap;html=1;fontSize=16;fillColor=#cdeb8b;strokeColor=#36393d;" vertex="1" parent="1">
          <mxGeometry x="150" y="540" width="40" height="40" as="geometry" />
        </mxCell>
        <mxCell id="nhJ-aPlhkV6QwyrbJD3G-111" style="edgeStyle=orthogonalEdgeStyle;rounded=0;orthogonalLoop=1;jettySize=auto;html=1;fontSize=16;" edge="1" parent="1" source="nhJ-aPlhkV6QwyrbJD3G-49" target="nhJ-aPlhkV6QwyrbJD3G-52">
          <mxGeometry relative="1" as="geometry">
            <Array as="points">
              <mxPoint x="130" y="590" />
              <mxPoint x="410" y="590" />
            </Array>
          </mxGeometry>
        </mxCell>
        <mxCell id="nhJ-aPlhkV6QwyrbJD3G-49" value="" style="rounded=0;whiteSpace=wrap;html=1;fontSize=16;" vertex="1" parent="1">
          <mxGeometry x="110" y="540" width="40" height="40" as="geometry" />
        </mxCell>
        <mxCell id="nhJ-aPlhkV6QwyrbJD3G-50" value="" style="ellipse;whiteSpace=wrap;html=1;aspect=fixed;fillColor=#f5f5f5;gradientColor=#1A1A1A;strokeColor=#666666;fontSize=16;" vertex="1" parent="1">
          <mxGeometry x="125" y="555" width="10" height="10" as="geometry" />
        </mxCell>
        <mxCell id="nhJ-aPlhkV6QwyrbJD3G-51" value="行记录" style="rounded=0;whiteSpace=wrap;html=1;fontSize=16;fillColor=#cce5ff;strokeColor=#36393d;" vertex="1" parent="1">
          <mxGeometry x="190" y="540" width="120" height="40" as="geometry" />
        </mxCell>
        <mxCell id="nhJ-aPlhkV6QwyrbJD3G-52" value="4" style="rounded=0;whiteSpace=wrap;html=1;fontSize=16;fillColor=#ffcccc;strokeColor=#36393d;" vertex="1" parent="1">
          <mxGeometry x="390" y="540" width="40" height="40" as="geometry" />
        </mxCell>
        <mxCell id="nhJ-aPlhkV6QwyrbJD3G-53" value="8" style="rounded=0;whiteSpace=wrap;html=1;fontSize=16;fillColor=#cdeb8b;strokeColor=#36393d;" vertex="1" parent="1">
          <mxGeometry x="470" y="540" width="40" height="40" as="geometry" />
        </mxCell>
        <mxCell id="nhJ-aPlhkV6QwyrbJD3G-112" style="edgeStyle=orthogonalEdgeStyle;rounded=0;orthogonalLoop=1;jettySize=auto;html=1;entryX=0.5;entryY=0;entryDx=0;entryDy=0;fontSize=16;" edge="1" parent="1" source="nhJ-aPlhkV6QwyrbJD3G-54" target="nhJ-aPlhkV6QwyrbJD3G-58">
          <mxGeometry relative="1" as="geometry">
            <Array as="points">
              <mxPoint x="450" y="620" />
              <mxPoint x="90" y="620" />
            </Array>
          </mxGeometry>
        </mxCell>
        <mxCell id="nhJ-aPlhkV6QwyrbJD3G-54" value="" style="rounded=0;whiteSpace=wrap;html=1;fontSize=16;" vertex="1" parent="1">
          <mxGeometry x="430" y="540" width="40" height="40" as="geometry" />
        </mxCell>
        <mxCell id="nhJ-aPlhkV6QwyrbJD3G-55" value="" style="ellipse;whiteSpace=wrap;html=1;aspect=fixed;fillColor=#f5f5f5;gradientColor=#1A1A1A;strokeColor=#666666;fontSize=16;" vertex="1" parent="1">
          <mxGeometry x="445" y="555" width="10" height="10" as="geometry" />
        </mxCell>
        <mxCell id="nhJ-aPlhkV6QwyrbJD3G-56" value="行记录" style="rounded=0;whiteSpace=wrap;html=1;fontSize=16;fillColor=#cce5ff;strokeColor=#36393d;" vertex="1" parent="1">
          <mxGeometry x="510" y="540" width="120" height="40" as="geometry" />
        </mxCell>
        <mxCell id="nhJ-aPlhkV6QwyrbJD3G-58" value="0" style="rounded=0;whiteSpace=wrap;html=1;fontSize=16;fillColor=#ffcccc;strokeColor=#36393d;" vertex="1" parent="1">
          <mxGeometry x="70" y="660" width="40" height="40" as="geometry" />
        </mxCell>
        <mxCell id="nhJ-aPlhkV6QwyrbJD3G-59" value="9" style="rounded=0;whiteSpace=wrap;html=1;fontSize=16;fillColor=#cdeb8b;strokeColor=#36393d;" vertex="1" parent="1">
          <mxGeometry x="150" y="660" width="40" height="40" as="geometry" />
        </mxCell>
        <mxCell id="nhJ-aPlhkV6QwyrbJD3G-113" style="edgeStyle=orthogonalEdgeStyle;rounded=0;orthogonalLoop=1;jettySize=auto;html=1;entryX=0;entryY=0.5;entryDx=0;entryDy=0;fontSize=16;" edge="1" parent="1" source="nhJ-aPlhkV6QwyrbJD3G-60" target="nhJ-aPlhkV6QwyrbJD3G-63">
          <mxGeometry relative="1" as="geometry">
            <Array as="points">
              <mxPoint x="130" y="650" />
              <mxPoint x="370" y="650" />
              <mxPoint x="370" y="680" />
            </Array>
          </mxGeometry>
        </mxCell>
        <mxCell id="nhJ-aPlhkV6QwyrbJD3G-60" value="" style="rounded=0;whiteSpace=wrap;html=1;fontSize=16;" vertex="1" parent="1">
          <mxGeometry x="110" y="660" width="40" height="40" as="geometry" />
        </mxCell>
        <mxCell id="nhJ-aPlhkV6QwyrbJD3G-61" value="" style="ellipse;whiteSpace=wrap;html=1;aspect=fixed;fillColor=#f5f5f5;gradientColor=#1A1A1A;strokeColor=#666666;fontSize=16;" vertex="1" parent="1">
          <mxGeometry x="125" y="675" width="10" height="10" as="geometry" />
        </mxCell>
        <mxCell id="nhJ-aPlhkV6QwyrbJD3G-62" value="行记录" style="rounded=0;whiteSpace=wrap;html=1;fontSize=16;fillColor=#cce5ff;strokeColor=#36393d;" vertex="1" parent="1">
          <mxGeometry x="190" y="660" width="120" height="40" as="geometry" />
        </mxCell>
        <mxCell id="nhJ-aPlhkV6QwyrbJD3G-63" value="0" style="rounded=0;whiteSpace=wrap;html=1;fontSize=16;fillColor=#ffcccc;strokeColor=#36393d;" vertex="1" parent="1">
          <mxGeometry x="390" y="660" width="40" height="40" as="geometry" />
        </mxCell>
        <mxCell id="nhJ-aPlhkV6QwyrbJD3G-64" value="10" style="rounded=0;whiteSpace=wrap;html=1;fontSize=16;fillColor=#cdeb8b;strokeColor=#36393d;" vertex="1" parent="1">
          <mxGeometry x="470" y="660" width="40" height="40" as="geometry" />
        </mxCell>
        <mxCell id="nhJ-aPlhkV6QwyrbJD3G-114" style="edgeStyle=orthogonalEdgeStyle;rounded=0;orthogonalLoop=1;jettySize=auto;html=1;entryX=0.5;entryY=0;entryDx=0;entryDy=0;fontSize=16;" edge="1" parent="1" source="nhJ-aPlhkV6QwyrbJD3G-65" target="nhJ-aPlhkV6QwyrbJD3G-68">
          <mxGeometry relative="1" as="geometry">
            <Array as="points">
              <mxPoint x="450" y="720" />
              <mxPoint x="90" y="720" />
            </Array>
          </mxGeometry>
        </mxCell>
        <mxCell id="nhJ-aPlhkV6QwyrbJD3G-65" value="" style="rounded=0;whiteSpace=wrap;html=1;fontSize=16;" vertex="1" parent="1">
          <mxGeometry x="430" y="660" width="40" height="40" as="geometry" />
        </mxCell>
        <mxCell id="nhJ-aPlhkV6QwyrbJD3G-66" value="" style="ellipse;whiteSpace=wrap;html=1;aspect=fixed;fillColor=#f5f5f5;gradientColor=#1A1A1A;strokeColor=#666666;fontSize=16;" vertex="1" parent="1">
          <mxGeometry x="445" y="675" width="10" height="10" as="geometry" />
        </mxCell>
        <mxCell id="nhJ-aPlhkV6QwyrbJD3G-67" value="行记录" style="rounded=0;whiteSpace=wrap;html=1;fontSize=16;fillColor=#cce5ff;strokeColor=#36393d;" vertex="1" parent="1">
          <mxGeometry x="510" y="660" width="120" height="40" as="geometry" />
        </mxCell>
        <mxCell id="nhJ-aPlhkV6QwyrbJD3G-68" value="0" style="rounded=0;whiteSpace=wrap;html=1;fontSize=16;fillColor=#ffcccc;strokeColor=#36393d;" vertex="1" parent="1">
          <mxGeometry x="70" y="740" width="40" height="40" as="geometry" />
        </mxCell>
        <mxCell id="nhJ-aPlhkV6QwyrbJD3G-69" value="11" style="rounded=0;whiteSpace=wrap;html=1;fontSize=16;fillColor=#cdeb8b;strokeColor=#36393d;" vertex="1" parent="1">
          <mxGeometry x="150" y="740" width="40" height="40" as="geometry" />
        </mxCell>
        <mxCell id="nhJ-aPlhkV6QwyrbJD3G-115" style="edgeStyle=orthogonalEdgeStyle;rounded=0;orthogonalLoop=1;jettySize=auto;html=1;entryX=0;entryY=0.5;entryDx=0;entryDy=0;fontSize=16;" edge="1" parent="1" source="nhJ-aPlhkV6QwyrbJD3G-70" target="nhJ-aPlhkV6QwyrbJD3G-73">
          <mxGeometry relative="1" as="geometry">
            <Array as="points">
              <mxPoint x="130" y="790" />
              <mxPoint x="370" y="790" />
              <mxPoint x="370" y="760" />
            </Array>
          </mxGeometry>
        </mxCell>
        <mxCell id="nhJ-aPlhkV6QwyrbJD3G-70" value="" style="rounded=0;whiteSpace=wrap;html=1;fontSize=16;" vertex="1" parent="1">
          <mxGeometry x="110" y="740" width="40" height="40" as="geometry" />
        </mxCell>
        <mxCell id="nhJ-aPlhkV6QwyrbJD3G-71" value="" style="ellipse;whiteSpace=wrap;html=1;aspect=fixed;fillColor=#f5f5f5;gradientColor=#1A1A1A;strokeColor=#666666;fontSize=16;" vertex="1" parent="1">
          <mxGeometry x="125" y="755" width="10" height="10" as="geometry" />
        </mxCell>
        <mxCell id="nhJ-aPlhkV6QwyrbJD3G-72" value="行记录" style="rounded=0;whiteSpace=wrap;html=1;fontSize=16;fillColor=#cce5ff;strokeColor=#36393d;" vertex="1" parent="1">
          <mxGeometry x="190" y="740" width="120" height="40" as="geometry" />
        </mxCell>
        <mxCell id="nhJ-aPlhkV6QwyrbJD3G-73" value="4" style="rounded=0;whiteSpace=wrap;html=1;fontSize=16;fillColor=#ffcccc;strokeColor=#36393d;" vertex="1" parent="1">
          <mxGeometry x="390" y="740" width="40" height="40" as="geometry" />
        </mxCell>
        <mxCell id="nhJ-aPlhkV6QwyrbJD3G-74" value="12" style="rounded=0;whiteSpace=wrap;html=1;fontSize=16;fillColor=#cdeb8b;strokeColor=#36393d;" vertex="1" parent="1">
          <mxGeometry x="470" y="740" width="40" height="40" as="geometry" />
        </mxCell>
        <mxCell id="nhJ-aPlhkV6QwyrbJD3G-75" value="" style="rounded=0;whiteSpace=wrap;html=1;fontSize=16;" vertex="1" parent="1">
          <mxGeometry x="430" y="740" width="40" height="40" as="geometry" />
        </mxCell>
        <mxCell id="nhJ-aPlhkV6QwyrbJD3G-76" value="" style="ellipse;whiteSpace=wrap;html=1;aspect=fixed;fillColor=#f5f5f5;gradientColor=#1A1A1A;strokeColor=#666666;fontSize=16;" vertex="1" parent="1">
          <mxGeometry x="445" y="755" width="10" height="10" as="geometry" />
        </mxCell>
        <mxCell id="nhJ-aPlhkV6QwyrbJD3G-77" value="行记录" style="rounded=0;whiteSpace=wrap;html=1;fontSize=16;fillColor=#cce5ff;strokeColor=#36393d;" vertex="1" parent="1">
          <mxGeometry x="510" y="740" width="120" height="40" as="geometry" />
        </mxCell>
        <mxCell id="nhJ-aPlhkV6QwyrbJD3G-78" value="" style="rounded=1;whiteSpace=wrap;html=1;fontSize=16;fillColor=#f9f7ed;strokeColor=#36393d;" vertex="1" parent="1">
          <mxGeometry x="40" y="840" width="640" height="230" as="geometry" />
        </mxCell>
        <mxCell id="nhJ-aPlhkV6QwyrbJD3G-79" value="0" style="rounded=0;whiteSpace=wrap;html=1;fontSize=16;fillColor=#ffcccc;strokeColor=#36393d;" vertex="1" parent="1">
          <mxGeometry x="70" y="860" width="40" height="40" as="geometry" />
        </mxCell>
        <mxCell id="nhJ-aPlhkV6QwyrbJD3G-80" value="13" style="rounded=0;whiteSpace=wrap;html=1;fontSize=16;fillColor=#cdeb8b;strokeColor=#36393d;" vertex="1" parent="1">
          <mxGeometry x="150" y="860" width="40" height="40" as="geometry" />
        </mxCell>
        <mxCell id="nhJ-aPlhkV6QwyrbJD3G-117" style="edgeStyle=orthogonalEdgeStyle;rounded=0;orthogonalLoop=1;jettySize=auto;html=1;entryX=0;entryY=0.5;entryDx=0;entryDy=0;fontSize=16;" edge="1" parent="1" source="nhJ-aPlhkV6QwyrbJD3G-81" target="nhJ-aPlhkV6QwyrbJD3G-84">
          <mxGeometry relative="1" as="geometry">
            <Array as="points">
              <mxPoint x="130" y="850" />
              <mxPoint x="370" y="850" />
              <mxPoint x="370" y="880" />
            </Array>
          </mxGeometry>
        </mxCell>
        <mxCell id="nhJ-aPlhkV6QwyrbJD3G-81" value="" style="rounded=0;whiteSpace=wrap;html=1;fontSize=16;" vertex="1" parent="1">
          <mxGeometry x="110" y="860" width="40" height="40" as="geometry" />
        </mxCell>
        <mxCell id="nhJ-aPlhkV6QwyrbJD3G-82" value="" style="ellipse;whiteSpace=wrap;html=1;aspect=fixed;fillColor=#f5f5f5;gradientColor=#1A1A1A;strokeColor=#666666;fontSize=16;" vertex="1" parent="1">
          <mxGeometry x="125" y="875" width="10" height="10" as="geometry" />
        </mxCell>
        <mxCell id="nhJ-aPlhkV6QwyrbJD3G-83" value="行记录" style="rounded=0;whiteSpace=wrap;html=1;fontSize=16;fillColor=#cce5ff;strokeColor=#36393d;" vertex="1" parent="1">
          <mxGeometry x="190" y="860" width="120" height="40" as="geometry" />
        </mxCell>
        <mxCell id="nhJ-aPlhkV6QwyrbJD3G-84" value="0" style="rounded=0;whiteSpace=wrap;html=1;fontSize=16;fillColor=#ffcccc;strokeColor=#36393d;" vertex="1" parent="1">
          <mxGeometry x="390" y="860" width="40" height="40" as="geometry" />
        </mxCell>
        <mxCell id="nhJ-aPlhkV6QwyrbJD3G-85" value="14" style="rounded=0;whiteSpace=wrap;html=1;fontSize=16;fillColor=#cdeb8b;strokeColor=#36393d;" vertex="1" parent="1">
          <mxGeometry x="470" y="860" width="40" height="40" as="geometry" />
        </mxCell>
        <mxCell id="nhJ-aPlhkV6QwyrbJD3G-118" style="edgeStyle=orthogonalEdgeStyle;rounded=0;orthogonalLoop=1;jettySize=auto;html=1;entryX=0.5;entryY=0;entryDx=0;entryDy=0;fontSize=16;" edge="1" parent="1" source="nhJ-aPlhkV6QwyrbJD3G-86" target="nhJ-aPlhkV6QwyrbJD3G-89">
          <mxGeometry relative="1" as="geometry">
            <Array as="points">
              <mxPoint x="450" y="920" />
              <mxPoint x="90" y="920" />
            </Array>
          </mxGeometry>
        </mxCell>
        <mxCell id="nhJ-aPlhkV6QwyrbJD3G-86" value="" style="rounded=0;whiteSpace=wrap;html=1;fontSize=16;" vertex="1" parent="1">
          <mxGeometry x="430" y="860" width="40" height="40" as="geometry" />
        </mxCell>
        <mxCell id="nhJ-aPlhkV6QwyrbJD3G-87" value="" style="ellipse;whiteSpace=wrap;html=1;aspect=fixed;fillColor=#f5f5f5;gradientColor=#1A1A1A;strokeColor=#666666;fontSize=16;" vertex="1" parent="1">
          <mxGeometry x="445" y="875" width="10" height="10" as="geometry" />
        </mxCell>
        <mxCell id="nhJ-aPlhkV6QwyrbJD3G-88" value="行记录" style="rounded=0;whiteSpace=wrap;html=1;fontSize=16;fillColor=#cce5ff;strokeColor=#36393d;" vertex="1" parent="1">
          <mxGeometry x="510" y="860" width="120" height="40" as="geometry" />
        </mxCell>
        <mxCell id="nhJ-aPlhkV6QwyrbJD3G-89" value="0" style="rounded=0;whiteSpace=wrap;html=1;fontSize=16;fillColor=#ffcccc;strokeColor=#36393d;" vertex="1" parent="1">
          <mxGeometry x="70" y="940" width="40" height="40" as="geometry" />
        </mxCell>
        <mxCell id="nhJ-aPlhkV6QwyrbJD3G-90" value="15" style="rounded=0;whiteSpace=wrap;html=1;fontSize=16;fillColor=#cdeb8b;strokeColor=#36393d;" vertex="1" parent="1">
          <mxGeometry x="150" y="940" width="40" height="40" as="geometry" />
        </mxCell>
        <mxCell id="nhJ-aPlhkV6QwyrbJD3G-119" style="edgeStyle=orthogonalEdgeStyle;rounded=0;orthogonalLoop=1;jettySize=auto;html=1;entryX=0;entryY=0.5;entryDx=0;entryDy=0;fontSize=16;" edge="1" parent="1" source="nhJ-aPlhkV6QwyrbJD3G-91" target="nhJ-aPlhkV6QwyrbJD3G-94">
          <mxGeometry relative="1" as="geometry">
            <Array as="points">
              <mxPoint x="130" y="990" />
              <mxPoint x="370" y="990" />
              <mxPoint x="370" y="960" />
            </Array>
          </mxGeometry>
        </mxCell>
        <mxCell id="nhJ-aPlhkV6QwyrbJD3G-91" value="" style="rounded=0;whiteSpace=wrap;html=1;fontSize=16;" vertex="1" parent="1">
          <mxGeometry x="110" y="940" width="40" height="40" as="geometry" />
        </mxCell>
        <mxCell id="nhJ-aPlhkV6QwyrbJD3G-92" value="" style="ellipse;whiteSpace=wrap;html=1;aspect=fixed;fillColor=#f5f5f5;gradientColor=#1A1A1A;strokeColor=#666666;fontSize=16;" vertex="1" parent="1">
          <mxGeometry x="125" y="955" width="10" height="10" as="geometry" />
        </mxCell>
        <mxCell id="nhJ-aPlhkV6QwyrbJD3G-93" value="行记录" style="rounded=0;whiteSpace=wrap;html=1;fontSize=16;fillColor=#cce5ff;strokeColor=#36393d;" vertex="1" parent="1">
          <mxGeometry x="190" y="940" width="120" height="40" as="geometry" />
        </mxCell>
        <mxCell id="nhJ-aPlhkV6QwyrbJD3G-94" value="0" style="rounded=0;whiteSpace=wrap;html=1;fontSize=16;fillColor=#ffcccc;strokeColor=#36393d;" vertex="1" parent="1">
          <mxGeometry x="390" y="940" width="40" height="40" as="geometry" />
        </mxCell>
        <mxCell id="nhJ-aPlhkV6QwyrbJD3G-95" value="16" style="rounded=0;whiteSpace=wrap;html=1;fontSize=16;fillColor=#cdeb8b;strokeColor=#36393d;" vertex="1" parent="1">
          <mxGeometry x="470" y="940" width="40" height="40" as="geometry" />
        </mxCell>
        <mxCell id="nhJ-aPlhkV6QwyrbJD3G-120" style="edgeStyle=orthogonalEdgeStyle;rounded=0;orthogonalLoop=1;jettySize=auto;html=1;entryX=0.5;entryY=0;entryDx=0;entryDy=0;fontSize=16;" edge="1" parent="1" source="nhJ-aPlhkV6QwyrbJD3G-96" target="nhJ-aPlhkV6QwyrbJD3G-100">
          <mxGeometry relative="1" as="geometry">
            <Array as="points">
              <mxPoint x="450" y="1000" />
              <mxPoint x="320" y="1000" />
            </Array>
          </mxGeometry>
        </mxCell>
        <mxCell id="nhJ-aPlhkV6QwyrbJD3G-96" value="" style="rounded=0;whiteSpace=wrap;html=1;fontSize=16;" vertex="1" parent="1">
          <mxGeometry x="430" y="940" width="40" height="40" as="geometry" />
        </mxCell>
        <mxCell id="nhJ-aPlhkV6QwyrbJD3G-97" value="" style="ellipse;whiteSpace=wrap;html=1;aspect=fixed;fillColor=#f5f5f5;gradientColor=#1A1A1A;strokeColor=#666666;fontSize=16;" vertex="1" parent="1">
          <mxGeometry x="445" y="955" width="10" height="10" as="geometry" />
        </mxCell>
        <mxCell id="nhJ-aPlhkV6QwyrbJD3G-98" value="行记录" style="rounded=0;whiteSpace=wrap;html=1;fontSize=16;fillColor=#cce5ff;strokeColor=#36393d;" vertex="1" parent="1">
          <mxGeometry x="510" y="940" width="120" height="40" as="geometry" />
        </mxCell>
        <mxCell id="nhJ-aPlhkV6QwyrbJD3G-100" value="5" style="rounded=0;whiteSpace=wrap;html=1;fontSize=16;fillColor=#ffcccc;strokeColor=#36393d;" vertex="1" parent="1">
          <mxGeometry x="300" y="1020" width="40" height="40" as="geometry" />
        </mxCell>
        <mxCell id="nhJ-aPlhkV6QwyrbJD3G-101" value="最大记录" style="rounded=0;whiteSpace=wrap;html=1;fontSize=16;fillColor=#ffff88;strokeColor=#36393d;" vertex="1" parent="1">
          <mxGeometry x="340" y="1020" width="80" height="40" as="geometry" />
        </mxCell>
        <mxCell id="nhJ-aPlhkV6QwyrbJD3G-116" style="edgeStyle=orthogonalEdgeStyle;rounded=0;orthogonalLoop=1;jettySize=auto;html=1;entryX=0.5;entryY=0;entryDx=0;entryDy=0;fontSize=16;" edge="1" parent="1" source="nhJ-aPlhkV6QwyrbJD3G-76" target="nhJ-aPlhkV6QwyrbJD3G-79">
          <mxGeometry relative="1" as="geometry">
            <Array as="points">
              <mxPoint x="450" y="820" />
              <mxPoint x="90" y="820" />
            </Array>
          </mxGeometry>
        </mxCell>
        <mxCell id="nhJ-aPlhkV6QwyrbJD3G-126" value="最小记录：" style="text;html=1;align=center;verticalAlign=middle;resizable=0;points=[];autosize=1;strokeColor=none;fillColor=none;fontSize=16;" vertex="1" parent="1">
          <mxGeometry x="120" y="140" width="100" height="20" as="geometry" />
        </mxCell>
        <mxCell id="nhJ-aPlhkV6QwyrbJD3G-127" value="最大记录：" style="text;html=1;align=center;verticalAlign=middle;resizable=0;points=[];autosize=1;strokeColor=none;fillColor=none;fontSize=16;" vertex="1" parent="1">
          <mxGeometry x="210" y="1030" width="100" height="20" as="geometry" />
        </mxCell>
        <mxCell id="nhJ-aPlhkV6QwyrbJD3G-133" value="" style="group" vertex="1" connectable="0" parent="1">
          <mxGeometry x="-120" y="130" width="40" height="40" as="geometry" />
        </mxCell>
        <mxCell id="nhJ-aPlhkV6QwyrbJD3G-131" value="" style="rounded=0;whiteSpace=wrap;html=1;fontSize=16;" vertex="1" parent="nhJ-aPlhkV6QwyrbJD3G-133">
          <mxGeometry width="40" height="40" as="geometry" />
        </mxCell>
        <mxCell id="nhJ-aPlhkV6QwyrbJD3G-132" value="" style="ellipse;whiteSpace=wrap;html=1;aspect=fixed;fillColor=#f5f5f5;gradientColor=#1A1A1A;strokeColor=#666666;fontSize=16;" vertex="1" parent="nhJ-aPlhkV6QwyrbJD3G-133">
          <mxGeometry x="15" y="15" width="10" height="10" as="geometry" />
        </mxCell>
        <mxCell id="nhJ-aPlhkV6QwyrbJD3G-134" value="" style="group;fillColor=#fa6800;fontColor=#000000;strokeColor=#C73500;" vertex="1" connectable="0" parent="1">
          <mxGeometry x="-120" y="300" width="40" height="40" as="geometry" />
        </mxCell>
        <mxCell id="nhJ-aPlhkV6QwyrbJD3G-135" value="" style="rounded=0;whiteSpace=wrap;html=1;fontSize=16;" vertex="1" parent="nhJ-aPlhkV6QwyrbJD3G-134">
          <mxGeometry width="40" height="40" as="geometry" />
        </mxCell>
        <mxCell id="nhJ-aPlhkV6QwyrbJD3G-136" value="" style="ellipse;whiteSpace=wrap;html=1;aspect=fixed;fillColor=#f5f5f5;gradientColor=#1A1A1A;strokeColor=#666666;fontSize=16;" vertex="1" parent="nhJ-aPlhkV6QwyrbJD3G-134">
          <mxGeometry x="15" y="15" width="10" height="10" as="geometry" />
        </mxCell>
        <mxCell id="nhJ-aPlhkV6QwyrbJD3G-137" value="" style="group" vertex="1" connectable="0" parent="1">
          <mxGeometry x="-120" y="500" width="40" height="40" as="geometry" />
        </mxCell>
        <mxCell id="nhJ-aPlhkV6QwyrbJD3G-138" value="" style="rounded=0;whiteSpace=wrap;html=1;fontSize=16;" vertex="1" parent="nhJ-aPlhkV6QwyrbJD3G-137">
          <mxGeometry width="40" height="40" as="geometry" />
        </mxCell>
        <mxCell id="nhJ-aPlhkV6QwyrbJD3G-139" value="" style="ellipse;whiteSpace=wrap;html=1;aspect=fixed;fillColor=#f5f5f5;gradientColor=#1A1A1A;strokeColor=#666666;fontSize=16;" vertex="1" parent="nhJ-aPlhkV6QwyrbJD3G-137">
          <mxGeometry x="15" y="15" width="10" height="10" as="geometry" />
        </mxCell>
        <mxCell id="nhJ-aPlhkV6QwyrbJD3G-140" value="" style="group" vertex="1" connectable="0" parent="1">
          <mxGeometry x="-120" y="700" width="40" height="40" as="geometry" />
        </mxCell>
        <mxCell id="nhJ-aPlhkV6QwyrbJD3G-141" value="" style="rounded=0;whiteSpace=wrap;html=1;fontSize=16;" vertex="1" parent="nhJ-aPlhkV6QwyrbJD3G-140">
          <mxGeometry width="40" height="40" as="geometry" />
        </mxCell>
        <mxCell id="nhJ-aPlhkV6QwyrbJD3G-142" value="" style="ellipse;whiteSpace=wrap;html=1;aspect=fixed;fillColor=#f5f5f5;gradientColor=#1A1A1A;strokeColor=#666666;fontSize=16;" vertex="1" parent="nhJ-aPlhkV6QwyrbJD3G-140">
          <mxGeometry x="15" y="15" width="10" height="10" as="geometry" />
        </mxCell>
        <mxCell id="nhJ-aPlhkV6QwyrbJD3G-143" value="" style="group" vertex="1" connectable="0" parent="1">
          <mxGeometry x="-120" y="900" width="40" height="40" as="geometry" />
        </mxCell>
        <mxCell id="nhJ-aPlhkV6QwyrbJD3G-144" value="" style="rounded=0;whiteSpace=wrap;html=1;fontSize=16;" vertex="1" parent="nhJ-aPlhkV6QwyrbJD3G-143">
          <mxGeometry width="40" height="40" as="geometry" />
        </mxCell>
        <mxCell id="nhJ-aPlhkV6QwyrbJD3G-145" value="" style="ellipse;whiteSpace=wrap;html=1;aspect=fixed;fillColor=#f5f5f5;gradientColor=#1A1A1A;strokeColor=#666666;fontSize=16;" vertex="1" parent="nhJ-aPlhkV6QwyrbJD3G-143">
          <mxGeometry x="15" y="15" width="10" height="10" as="geometry" />
        </mxCell>
        <mxCell id="nhJ-aPlhkV6QwyrbJD3G-146" style="edgeStyle=orthogonalEdgeStyle;rounded=0;orthogonalLoop=1;jettySize=auto;html=1;entryX=0.5;entryY=0;entryDx=0;entryDy=0;fontSize=16;fillColor=#fa6800;strokeColor=#C73500;strokeWidth=2;dashed=1;" edge="1" parent="1" source="nhJ-aPlhkV6QwyrbJD3G-131" target="nhJ-aPlhkV6QwyrbJD3G-2">
          <mxGeometry relative="1" as="geometry">
            <Array as="points">
              <mxPoint y="150" />
              <mxPoint y="110" />
              <mxPoint x="340" y="110" />
            </Array>
          </mxGeometry>
        </mxCell>
        <mxCell id="nhJ-aPlhkV6QwyrbJD3G-147" style="edgeStyle=orthogonalEdgeStyle;rounded=0;orthogonalLoop=1;jettySize=auto;html=1;entryX=0.5;entryY=0;entryDx=0;entryDy=0;fontSize=16;fillColor=#e51400;strokeColor=#B20000;strokeWidth=2;dashed=1;" edge="1" parent="1" source="nhJ-aPlhkV6QwyrbJD3G-135" target="nhJ-aPlhkV6QwyrbJD3G-31">
          <mxGeometry relative="1" as="geometry">
            <Array as="points">
              <mxPoint x="490" y="310" />
            </Array>
          </mxGeometry>
        </mxCell>
        <mxCell id="nhJ-aPlhkV6QwyrbJD3G-148" style="edgeStyle=orthogonalEdgeStyle;rounded=0;orthogonalLoop=1;jettySize=auto;html=1;fontSize=16;fillColor=#e51400;strokeColor=#B20000;strokeWidth=2;dashed=1;" edge="1" parent="1" source="nhJ-aPlhkV6QwyrbJD3G-138">
          <mxGeometry relative="1" as="geometry">
            <mxPoint x="490" y="540" as="targetPoint" />
            <Array as="points">
              <mxPoint x="490" y="510" />
              <mxPoint x="490" y="540" />
            </Array>
          </mxGeometry>
        </mxCell>
        <mxCell id="nhJ-aPlhkV6QwyrbJD3G-149" style="edgeStyle=orthogonalEdgeStyle;rounded=0;orthogonalLoop=1;jettySize=auto;html=1;entryX=0.5;entryY=0;entryDx=0;entryDy=0;fontSize=16;strokeWidth=2;fillColor=#e51400;strokeColor=#B20000;dashed=1;" edge="1" parent="1" source="nhJ-aPlhkV6QwyrbJD3G-141" target="nhJ-aPlhkV6QwyrbJD3G-74">
          <mxGeometry relative="1" as="geometry">
            <Array as="points">
              <mxPoint x="490" y="710" />
            </Array>
          </mxGeometry>
        </mxCell>
        <mxCell id="nhJ-aPlhkV6QwyrbJD3G-150" style="edgeStyle=orthogonalEdgeStyle;rounded=0;orthogonalLoop=1;jettySize=auto;html=1;entryX=0.25;entryY=0;entryDx=0;entryDy=0;fontSize=16;strokeWidth=2;fillColor=#e51400;strokeColor=#B20000;dashed=1;" edge="1" parent="1" source="nhJ-aPlhkV6QwyrbJD3G-144" target="nhJ-aPlhkV6QwyrbJD3G-101">
          <mxGeometry relative="1" as="geometry">
            <Array as="points">
              <mxPoint x="360" y="910" />
            </Array>
          </mxGeometry>
        </mxCell>
        <mxCell id="nhJ-aPlhkV6QwyrbJD3G-152" value="槽0" style="text;html=1;align=center;verticalAlign=middle;resizable=0;points=[];autosize=1;strokeColor=none;fillColor=none;fontSize=16;" vertex="1" parent="1">
          <mxGeometry x="-120" y="110" width="40" height="20" as="geometry" />
        </mxCell>
        <mxCell id="nhJ-aPlhkV6QwyrbJD3G-153" value="槽1" style="text;html=1;align=center;verticalAlign=middle;resizable=0;points=[];autosize=1;strokeColor=none;fillColor=none;fontSize=16;" vertex="1" parent="1">
          <mxGeometry x="-120" y="280" width="40" height="20" as="geometry" />
        </mxCell>
        <mxCell id="nhJ-aPlhkV6QwyrbJD3G-154" value="槽2" style="text;html=1;align=center;verticalAlign=middle;resizable=0;points=[];autosize=1;strokeColor=none;fillColor=none;fontSize=16;" vertex="1" parent="1">
          <mxGeometry x="-120" y="480" width="40" height="20" as="geometry" />
        </mxCell>
        <mxCell id="nhJ-aPlhkV6QwyrbJD3G-155" value="槽3" style="text;html=1;align=center;verticalAlign=middle;resizable=0;points=[];autosize=1;strokeColor=none;fillColor=none;fontSize=16;" vertex="1" parent="1">
          <mxGeometry x="-120" y="680" width="40" height="20" as="geometry" />
        </mxCell>
        <mxCell id="nhJ-aPlhkV6QwyrbJD3G-156" value="槽4" style="text;html=1;align=center;verticalAlign=middle;resizable=0;points=[];autosize=1;strokeColor=none;fillColor=none;fontSize=16;" vertex="1" parent="1">
          <mxGeometry x="-120" y="880" width="40" height="20" as="geometry" />
        </mxCell>
        <mxCell id="nhJ-aPlhkV6QwyrbJD3G-157" value="页目录" style="text;html=1;align=center;verticalAlign=middle;resizable=0;points=[];autosize=1;strokeColor=none;fillColor=none;fontSize=16;" vertex="1" parent="1">
          <mxGeometry x="-130" y="70" width="60" height="20" as="geometry" />
        </mxCell>
        <mxCell id="nhJ-aPlhkV6QwyrbJD3G-158" value="" style="shape=curlyBracket;whiteSpace=wrap;html=1;rounded=1;flipH=1;fontSize=16;gradientColor=#1A1A1A;" vertex="1" parent="1">
          <mxGeometry x="690" y="100" width="20" height="100" as="geometry" />
        </mxCell>
        <mxCell id="nhJ-aPlhkV6QwyrbJD3G-159" value="分组1" style="text;html=1;align=center;verticalAlign=middle;resizable=0;points=[];autosize=1;strokeColor=none;fillColor=none;fontSize=16;" vertex="1" parent="1">
          <mxGeometry x="710" y="140" width="60" height="20" as="geometry" />
        </mxCell>
        <mxCell id="nhJ-aPlhkV6QwyrbJD3G-160" value="" style="shape=curlyBracket;whiteSpace=wrap;html=1;rounded=1;flipH=1;fontSize=16;gradientColor=#1A1A1A;" vertex="1" parent="1">
          <mxGeometry x="690" y="240" width="20" height="160" as="geometry" />
        </mxCell>
        <mxCell id="nhJ-aPlhkV6QwyrbJD3G-161" value="分组2" style="text;html=1;align=center;verticalAlign=middle;resizable=0;points=[];autosize=1;strokeColor=none;fillColor=none;fontSize=16;" vertex="1" parent="1">
          <mxGeometry x="710" y="310" width="60" height="20" as="geometry" />
        </mxCell>
        <mxCell id="nhJ-aPlhkV6QwyrbJD3G-162" value="" style="shape=curlyBracket;whiteSpace=wrap;html=1;rounded=1;flipH=1;fontSize=16;gradientColor=#1A1A1A;" vertex="1" parent="1">
          <mxGeometry x="690" y="440" width="20" height="160" as="geometry" />
        </mxCell>
        <mxCell id="nhJ-aPlhkV6QwyrbJD3G-163" value="分组3" style="text;html=1;align=center;verticalAlign=middle;resizable=0;points=[];autosize=1;strokeColor=none;fillColor=none;fontSize=16;" vertex="1" parent="1">
          <mxGeometry x="710" y="510" width="60" height="20" as="geometry" />
        </mxCell>
        <mxCell id="nhJ-aPlhkV6QwyrbJD3G-164" value="" style="shape=curlyBracket;whiteSpace=wrap;html=1;rounded=1;flipH=1;fontSize=16;gradientColor=#1A1A1A;" vertex="1" parent="1">
          <mxGeometry x="690" y="640" width="20" height="160" as="geometry" />
        </mxCell>
        <mxCell id="nhJ-aPlhkV6QwyrbJD3G-165" value="分组4" style="text;html=1;align=center;verticalAlign=middle;resizable=0;points=[];autosize=1;strokeColor=none;fillColor=none;fontSize=16;" vertex="1" parent="1">
          <mxGeometry x="710" y="710" width="60" height="20" as="geometry" />
        </mxCell>
        <mxCell id="nhJ-aPlhkV6QwyrbJD3G-166" value="" style="shape=curlyBracket;whiteSpace=wrap;html=1;rounded=1;flipH=1;fontSize=16;gradientColor=#1A1A1A;" vertex="1" parent="1">
          <mxGeometry x="690" y="840" width="20" height="230" as="geometry" />
        </mxCell>
        <mxCell id="nhJ-aPlhkV6QwyrbJD3G-167" value="分组5" style="text;html=1;align=center;verticalAlign=middle;resizable=0;points=[];autosize=1;strokeColor=none;fillColor=none;fontSize=16;" vertex="1" parent="1">
          <mxGeometry x="720" y="950" width="60" height="20" as="geometry" />
        </mxCell>
        <mxCell id="nhJ-aPlhkV6QwyrbJD3G-169" value="数据页" style="text;html=1;align=center;verticalAlign=middle;resizable=0;points=[];autosize=1;strokeColor=none;fillColor=none;fontSize=19;" vertex="1" parent="1">
          <mxGeometry x="325" y="-15" width="70" height="30" as="geometry" />
        </mxCell>
      </root>
    </mxGraphModel>
  </diagram>
</mxfile>
